{
	"asset":{
		"generator":"Khronos glTF Blender I/O v4.0.44",
		"version":"2.0"
	},
	"extensionsUsed":[
		"KHR_materials_transmission",
		"KHR_materials_specular",
		"KHR_materials_ior"
	],
	"scene":0,
	"scenes":[
		{
			"name":"Scene",
			"nodes":[
				0,
				1,
				2,
				3,
				4,
				5,
				6,
				7,
				8,
				9,
				10,
				11,
				12,
				13,
				14,
				15
			]
		}
	],
	"nodes":[
		{
			"mesh":0,
			"name":"Sphere.001",
			"scale":[
				0.5,
				0.5,
				0.5
			],
			"translation":[
				-4.375,
				-1.5,
				0
			]
		},
		{
			"mesh":1,
			"name":"Sphere.002",
			"scale":[
				0.5,
				0.5,
				0.5
			],
			"translation":[
				-3.125,
				-1.5,
				0
			]
		},
		{
			"mesh":2,
			"name":"Sphere.003",
			"scale":[
				0.5,
				0.5,
				0.5
			],
			"translation":[
				-1.875,
				-1.5,
				0
			]
		},
		{
			"mesh":3,
			"name":"Sphere.004",
			"scale":[
				0.5,
				0.5,
				0.5
			],
			"translation":[
				-0.625,
				-1.5,
				0
			]
		},
		{
			"mesh":4,
			"name":"Sphere.005",
			"scale":[
				0.5,
				0.5,
				0.5
			],
			"translation":[
				0.625,
				-1.5,
				0
			]
		},
		{
			"mesh":5,
			"name":"Sphere.006",
			"scale":[
				0.5,
				0.5,
				0.5
			],
			"translation":[
				1.875,
				-1.5,
				0
			]
		},
		{
			"mesh":6,
			"name":"Sphere.007",
			"scale":[
				0.5,
				0.5,
				0.5
			],
			"translation":[
				3.125,
				-1.5,
				0
			]
		},
		{
			"mesh":7,
			"name":"Sphere.008",
			"scale":[
				0.5,
				0.5,
				0.5
			],
			"translation":[
				4.375,
				-1.5,
				0
			]
		},
		{
			"mesh":8,
			"name":"Sphere.009",
			"scale":[
				0.5,
				0.5,
				0.5
			],
			"translation":[
				4.375,
				1.5,
				0
			]
		},
		{
			"mesh":9,
			"name":"Sphere.010",
			"scale":[
				0.5,
				0.5,
				0.5
			],
			"translation":[
				3.125,
				1.5,
				0
			]
		},
		{
			"mesh":10,
			"name":"Sphere.011",
			"scale":[
				0.5,
				0.5,
				0.5
			],
			"translation":[
				1.875,
				1.5,
				0
			]
		},
		{
			"mesh":11,
			"name":"Sphere.012",
			"scale":[
				0.5,
				0.5,
				0.5
			],
			"translation":[
				0.625,
				1.5,
				0
			]
		},
		{
			"mesh":12,
			"name":"Sphere.013",
			"scale":[
				0.5,
				0.5,
				0.5
			],
			"translation":[
				-0.625,
				1.5,
				0
			]
		},
		{
			"mesh":13,
			"name":"Sphere.014",
			"scale":[
				0.5,
				0.5,
				0.5
			],
			"translation":[
				-1.875,
				1.5,
				0
			]
		},
		{
			"mesh":14,
			"name":"Sphere.015",
			"scale":[
				0.5,
				0.5,
				0.5
			],
			"translation":[
				-3.125,
				1.5,
				0
			]
		},
		{
			"mesh":15,
			"name":"Sphere.016",
			"scale":[
				0.5,
				0.5,
				0.5
			],
			"translation":[
				-4.375,
				1.5,
				0
			]
		}
	],
	"materials":[
		{
			"doubleSided":true,
			"extensions":{
				"KHR_materials_transmission":{
					"transmissionFactor":1
				},
				"KHR_materials_specular":{
					"specularFactor":0
				},
				"KHR_materials_ior":{
					"ior":1.4500000476837158
				}
			},
			"name":"Material.002",
			"pbrMetallicRoughness":{
				"baseColorFactor":[
					0.800000011920929,
					0.800000011920929,
					0.800000011920929,
					1
				],
				"metallicFactor":0,
				"roughnessFactor":0
			}
		},
		{
			"doubleSided":true,
			"extensions":{
				"KHR_materials_transmission":{
					"transmissionFactor":1
				},
				"KHR_materials_specular":{
					"specularFactor":0
				},
				"KHR_materials_ior":{
					"ior":1.4500000476837158
				}
			},
			"name":"Material.010",
			"pbrMetallicRoughness":{
				"baseColorFactor":[
					0.800000011920929,
					0.800000011920929,
					0.800000011920929,
					1
				],
				"metallicFactor":0,
				"roughnessFactor":0.1429000049829483
			}
		},
		{
			"doubleSided":true,
			"extensions":{
				"KHR_materials_transmission":{
					"transmissionFactor":1
				},
				"KHR_materials_specular":{
					"specularFactor":0
				},
				"KHR_materials_ior":{
					"ior":1.4500000476837158
				}
			},
			"name":"Material.011",
			"pbrMetallicRoughness":{
				"baseColorFactor":[
					0.800000011920929,
					0.800000011920929,
					0.800000011920929,
					1
				],
				"metallicFactor":0,
				"roughnessFactor":0.2856999933719635
			}
		},
		{
			"doubleSided":true,
			"extensions":{
				"KHR_materials_transmission":{
					"transmissionFactor":1
				},
				"KHR_materials_specular":{
					"specularFactor":0
				},
				"KHR_materials_ior":{
					"ior":1.4500000476837158
				}
			},
			"name":"Material.012",
			"pbrMetallicRoughness":{
				"baseColorFactor":[
					0.800000011920929,
					0.800000011920929,
					0.800000011920929,
					1
				],
				"metallicFactor":0,
				"roughnessFactor":0.428600013256073
			}
		},
		{
			"doubleSided":true,
			"extensions":{
				"KHR_materials_transmission":{
					"transmissionFactor":1
				},
				"KHR_materials_specular":{
					"specularFactor":0
				},
				"KHR_materials_ior":{
					"ior":1.4500000476837158
				}
			},
			"name":"Material.013",
			"pbrMetallicRoughness":{
				"baseColorFactor":[
					0.800000011920929,
					0.800000011920929,
					0.800000011920929,
					1
				],
				"metallicFactor":0,
				"roughnessFactor":0.571399986743927
			}
		},
		{
			"doubleSided":true,
			"extensions":{
				"KHR_materials_transmission":{
					"transmissionFactor":1
				},
				"KHR_materials_specular":{
					"specularFactor":0
				},
				"KHR_materials_ior":{
					"ior":1.4500000476837158
				}
			},
			"name":"Material.014",
			"pbrMetallicRoughness":{
				"baseColorFactor":[
					0.800000011920929,
					0.800000011920929,
					0.800000011920929,
					1
				],
				"metallicFactor":0,
				"roughnessFactor":0.7142999768257141
			}
		},
		{
			"doubleSided":true,
			"extensions":{
				"KHR_materials_transmission":{
					"transmissionFactor":1
				},
				"KHR_materials_specular":{
					"specularFactor":0
				},
				"KHR_materials_ior":{
					"ior":1.4500000476837158
				}
			},
			"name":"Material.015",
			"pbrMetallicRoughness":{
				"baseColorFactor":[
					0.800000011920929,
					0.800000011920929,
					0.800000011920929,
					1
				],
				"metallicFactor":0,
				"roughnessFactor":0.8571000099182129
			}
		},
		{
			"doubleSided":true,
			"extensions":{
				"KHR_materials_transmission":{
					"transmissionFactor":1
				},
				"KHR_materials_specular":{
					"specularFactor":0
				},
				"KHR_materials_ior":{
					"ior":1.4500000476837158
				}
			},
			"name":"Material.016",
			"pbrMetallicRoughness":{
				"baseColorFactor":[
					0.800000011920929,
					0.800000011920929,
					0.800000011920929,
					1
				],
				"metallicFactor":0
			}
		},
		{
			"doubleSided":true,
			"extensions":{
				"KHR_materials_transmission":{
					"transmissionFactor":1
				},
				"KHR_materials_ior":{
					"ior":1.4500000476837158
				}
			},
			"name":"Material.017",
			"pbrMetallicRoughness":{
				"baseColorFactor":[
					0.800000011920929,
					0.800000011920929,
					0.800000011920929,
					1
				],
				"metallicFactor":1
			}
		},
		{
			"doubleSided":true,
			"extensions":{
				"KHR_materials_transmission":{
					"transmissionFactor":1
				},
				"KHR_materials_ior":{
					"ior":1.4500000476837158
				}
			},
			"name":"Material.018",
			"pbrMetallicRoughness":{
				"baseColorFactor":[
					0.800000011920929,
					0.800000011920929,
					0.800000011920929,
					1
				],
				"metallicFactor":1,
				"roughnessFactor":0.8571000099182129
			}
		},
		{
			"doubleSided":true,
			"extensions":{
				"KHR_materials_transmission":{
					"transmissionFactor":1
				},
				"KHR_materials_ior":{
					"ior":1.4500000476837158
				}
			},
			"name":"Material.019",
			"pbrMetallicRoughness":{
				"baseColorFactor":[
					0.800000011920929,
					0.800000011920929,
					0.800000011920929,
					1
				],
				"metallicFactor":1,
				"roughnessFactor":0.7142999768257141
			}
		},
		{
			"doubleSided":true,
			"extensions":{
				"KHR_materials_transmission":{
					"transmissionFactor":1
				},
				"KHR_materials_ior":{
					"ior":1.4500000476837158
				}
			},
			"name":"Material.020",
			"pbrMetallicRoughness":{
				"baseColorFactor":[
					0.800000011920929,
					0.800000011920929,
					0.800000011920929,
					1
				],
				"metallicFactor":1,
				"roughnessFactor":0.571399986743927
			}
		},
		{
			"doubleSided":true,
			"extensions":{
				"KHR_materials_transmission":{
					"transmissionFactor":1
				},
				"KHR_materials_ior":{
					"ior":1.4500000476837158
				}
			},
			"name":"Material.021",
			"pbrMetallicRoughness":{
				"baseColorFactor":[
					0.800000011920929,
					0.800000011920929,
					0.800000011920929,
					1
				],
				"metallicFactor":1,
				"roughnessFactor":0.428600013256073
			}
		},
		{
			"doubleSided":true,
			"extensions":{
				"KHR_materials_transmission":{
					"transmissionFactor":1
				},
				"KHR_materials_ior":{
					"ior":1.4500000476837158
				}
			},
			"name":"Material.022",
			"pbrMetallicRoughness":{
				"baseColorFactor":[
					0.800000011920929,
					0.800000011920929,
					0.800000011920929,
					1
				],
				"metallicFactor":1,
				"roughnessFactor":0.2856999933719635
			}
		},
		{
			"doubleSided":true,
			"extensions":{
				"KHR_materials_transmission":{
					"transmissionFactor":1
				},
				"KHR_materials_ior":{
					"ior":1.4500000476837158
				}
			},
			"name":"Material.023",
			"pbrMetallicRoughness":{
				"baseColorFactor":[
					0.800000011920929,
					0.800000011920929,
					0.800000011920929,
					1
				],
				"metallicFactor":1,
				"roughnessFactor":0.1429000049829483
			}
		},
		{
			"doubleSided":true,
			"extensions":{
				"KHR_materials_transmission":{
					"transmissionFactor":1
				},
				"KHR_materials_ior":{
					"ior":1.4500000476837158
				}
			},
			"name":"Material.024",
			"pbrMetallicRoughness":{
				"baseColorFactor":[
					0.800000011920929,
					0.800000011920929,
					0.800000011920929,
					1
				],
				"metallicFactor":1,
				"roughnessFactor":0
			}
		}
	],
	"meshes":[
		{
			"name":"Sphere.001",
			"primitives":[
				{
					"attributes":{
						"POSITION":0,
						"NORMAL":1,
						"TEXCOORD_0":2
					},
					"indices":3,
					"material":0
				}
			]
		},
		{
			"name":"Sphere.009",
			"primitives":[
				{
					"attributes":{
						"POSITION":4,
						"NORMAL":5,
						"TEXCOORD_0":6
					},
					"indices":3,
					"material":1
				}
			]
		},
		{
			"name":"Sphere.010",
			"primitives":[
				{
					"attributes":{
						"POSITION":7,
						"NORMAL":8,
						"TEXCOORD_0":9
					},
					"indices":3,
					"material":2
				}
			]
		},
		{
			"name":"Sphere.011",
			"primitives":[
				{
					"attributes":{
						"POSITION":10,
						"NORMAL":11,
						"TEXCOORD_0":12
					},
					"indices":3,
					"material":3
				}
			]
		},
		{
			"name":"Sphere.012",
			"primitives":[
				{
					"attributes":{
						"POSITION":13,
						"NORMAL":14,
						"TEXCOORD_0":15
					},
					"indices":3,
					"material":4
				}
			]
		},
		{
			"name":"Sphere.013",
			"primitives":[
				{
					"attributes":{
						"POSITION":16,
						"NORMAL":17,
						"TEXCOORD_0":18
					},
					"indices":3,
					"material":5
				}
			]
		},
		{
			"name":"Sphere.014",
			"primitives":[
				{
					"attributes":{
						"POSITION":19,
						"NORMAL":20,
						"TEXCOORD_0":21
					},
					"indices":3,
					"material":6
				}
			]
		},
		{
			"name":"Sphere.015",
			"primitives":[
				{
					"attributes":{
						"POSITION":22,
						"NORMAL":23,
						"TEXCOORD_0":24
					},
					"indices":3,
					"material":7
				}
			]
		},
		{
			"name":"Sphere.016",
			"primitives":[
				{
					"attributes":{
						"POSITION":25,
						"NORMAL":26,
						"TEXCOORD_0":27
					},
					"indices":3,
					"material":8
				}
			]
		},
		{
			"name":"Sphere.017",
			"primitives":[
				{
					"attributes":{
						"POSITION":28,
						"NORMAL":29,
						"TEXCOORD_0":30
					},
					"indices":3,
					"material":9
				}
			]
		},
		{
			"name":"Sphere.018",
			"primitives":[
				{
					"attributes":{
						"POSITION":31,
						"NORMAL":32,
						"TEXCOORD_0":33
					},
					"indices":3,
					"material":10
				}
			]
		},
		{
			"name":"Sphere.019",
			"primitives":[
				{
					"attributes":{
						"POSITION":34,
						"NORMAL":35,
						"TEXCOORD_0":36
					},
					"indices":3,
					"material":11
				}
			]
		},
		{
			"name":"Sphere.020",
			"primitives":[
				{
					"attributes":{
						"POSITION":37,
						"NORMAL":38,
						"TEXCOORD_0":39
					},
					"indices":3,
					"material":12
				}
			]
		},
		{
			"name":"Sphere.021",
			"primitives":[
				{
					"attributes":{
						"POSITION":40,
						"NORMAL":41,
						"TEXCOORD_0":42
					},
					"indices":3,
					"material":13
				}
			]
		},
		{
			"name":"Sphere.022",
			"primitives":[
				{
					"attributes":{
						"POSITION":43,
						"NORMAL":44,
						"TEXCOORD_0":45
					},
					"indices":3,
					"material":14
				}
			]
		},
		{
			"name":"Sphere.023",
			"primitives":[
				{
					"attributes":{
						"POSITION":46,
						"NORMAL":47,
						"TEXCOORD_0":48
					},
					"indices":3,
					"material":15
				}
			]
		}
	],
	"accessors":[
		{
			"bufferView":0,
			"componentType":5126,
			"count":2143,
			"max":[
				0.9999998807907104,
				1,
				0.9999997615814209
			],
			"min":[
				-0.9999997019767761,
				-1,
				-1
			],
			"type":"VEC3"
		},
		{
			"bufferView":1,
			"componentType":5126,
			"count":2143,
			"type":"VEC3"
		},
		{
			"bufferView":2,
			"componentType":5126,
			"count":2143,
			"type":"VEC2"
		},
		{
			"bufferView":3,
			"componentType":5123,
			"count":11904,
			"type":"SCALAR"
		},
		{
			"bufferView":4,
			"componentType":5126,
			"count":2143,
			"max":[
				0.9999998807907104,
				1,
				0.9999997615814209
			],
			"min":[
				-0.9999997019767761,
				-1,
				-1
			],
			"type":"VEC3"
		},
		{
			"bufferView":5,
			"componentType":5126,
			"count":2143,
			"type":"VEC3"
		},
		{
			"bufferView":6,
			"componentType":5126,
			"count":2143,
			"type":"VEC2"
		},
		{
			"bufferView":7,
			"componentType":5126,
			"count":2143,
			"max":[
				0.9999998807907104,
				1,
				0.9999997615814209
			],
			"min":[
				-0.9999997019767761,
				-1,
				-1
			],
			"type":"VEC3"
		},
		{
			"bufferView":8,
			"componentType":5126,
			"count":2143,
			"type":"VEC3"
		},
		{
			"bufferView":9,
			"componentType":5126,
			"count":2143,
			"type":"VEC2"
		},
		{
			"bufferView":10,
			"componentType":5126,
			"count":2143,
			"max":[
				0.9999998807907104,
				1,
				0.9999997615814209
			],
			"min":[
				-0.9999997019767761,
				-1,
				-1
			],
			"type":"VEC3"
		},
		{
			"bufferView":11,
			"componentType":5126,
			"count":2143,
			"type":"VEC3"
		},
		{
			"bufferView":12,
			"componentType":5126,
			"count":2143,
			"type":"VEC2"
		},
		{
			"bufferView":13,
			"componentType":5126,
			"count":2143,
			"max":[
				0.9999998807907104,
				1,
				0.9999997615814209
			],
			"min":[
				-0.9999997019767761,
				-1,
				-1
			],
			"type":"VEC3"
		},
		{
			"bufferView":14,
			"componentType":5126,
			"count":2143,
			"type":"VEC3"
		},
		{
			"bufferView":15,
			"componentType":5126,
			"count":2143,
			"type":"VEC2"
		},
		{
			"bufferView":16,
			"componentType":5126,
			"count":2143,
			"max":[
				0.9999998807907104,
				1,
				0.9999997615814209
			],
			"min":[
				-0.9999997019767761,
				-1,
				-1
			],
			"type":"VEC3"
		},
		{
			"bufferView":17,
			"componentType":5126,
			"count":2143,
			"type":"VEC3"
		},
		{
			"bufferView":18,
			"componentType":5126,
			"count":2143,
			"type":"VEC2"
		},
		{
			"bufferView":19,
			"componentType":5126,
			"count":2143,
			"max":[
				0.9999998807907104,
				1,
				0.9999997615814209
			],
			"min":[
				-0.9999997019767761,
				-1,
				-1
			],
			"type":"VEC3"
		},
		{
			"bufferView":20,
			"componentType":5126,
			"count":2143,
			"type":"VEC3"
		},
		{
			"bufferView":21,
			"componentType":5126,
			"count":2143,
			"type":"VEC2"
		},
		{
			"bufferView":22,
			"componentType":5126,
			"count":2143,
			"max":[
				0.9999998807907104,
				1,
				0.9999997615814209
			],
			"min":[
				-0.9999997019767761,
				-1,
				-1
			],
			"type":"VEC3"
		},
		{
			"bufferView":23,
			"componentType":5126,
			"count":2143,
			"type":"VEC3"
		},
		{
			"bufferView":24,
			"componentType":5126,
			"count":2143,
			"type":"VEC2"
		},
		{
			"bufferView":25,
			"componentType":5126,
			"count":2143,
			"max":[
				0.9999998807907104,
				1,
				0.9999997615814209
			],
			"min":[
				-0.9999997019767761,
				-1,
				-1
			],
			"type":"VEC3"
		},
		{
			"bufferView":26,
			"componentType":5126,
			"count":2143,
			"type":"VEC3"
		},
		{
			"bufferView":27,
			"componentType":5126,
			"count":2143,
			"type":"VEC2"
		},
		{
			"bufferView":28,
			"componentType":5126,
			"count":2143,
			"max":[
				0.9999998807907104,
				1,
				0.9999997615814209
			],
			"min":[
				-0.9999997019767761,
				-1,
				-1
			],
			"type":"VEC3"
		},
		{
			"bufferView":29,
			"componentType":5126,
			"count":2143,
			"type":"VEC3"
		},
		{
			"bufferView":30,
			"componentType":5126,
			"count":2143,
			"type":"VEC2"
		},
		{
			"bufferView":31,
			"componentType":5126,
			"count":2143,
			"max":[
				0.9999998807907104,
				1,
				0.9999997615814209
			],
			"min":[
				-0.9999997019767761,
				-1,
				-1
			],
			"type":"VEC3"
		},
		{
			"bufferView":32,
			"componentType":5126,
			"count":2143,
			"type":"VEC3"
		},
		{
			"bufferView":33,
			"componentType":5126,
			"count":2143,
			"type":"VEC2"
		},
		{
			"bufferView":34,
			"componentType":5126,
			"count":2143,
			"max":[
				0.9999998807907104,
				1,
				0.9999997615814209
			],
			"min":[
				-0.9999997019767761,
				-1,
				-1
			],
			"type":"VEC3"
		},
		{
			"bufferView":35,
			"componentType":5126,
			"count":2143,
			"type":"VEC3"
		},
		{
			"bufferView":36,
			"componentType":5126,
			"count":2143,
			"type":"VEC2"
		},
		{
			"bufferView":37,
			"componentType":5126,
			"count":2143,
			"max":[
				0.9999998807907104,
				1,
				0.9999997615814209
			],
			"min":[
				-0.9999997019767761,
				-1,
				-1
			],
			"type":"VEC3"
		},
		{
			"bufferView":38,
			"componentType":5126,
			"count":2143,
			"type":"VEC3"
		},
		{
			"bufferView":39,
			"componentType":5126,
			"count":2143,
			"type":"VEC2"
		},
		{
			"bufferView":40,
			"componentType":5126,
			"count":2143,
			"max":[
				0.9999998807907104,
				1,
				0.9999997615814209
			],
			"min":[
				-0.9999997019767761,
				-1,
				-1
			],
			"type":"VEC3"
		},
		{
			"bufferView":41,
			"componentType":5126,
			"count":2143,
			"type":"VEC3"
		},
		{
			"bufferView":42,
			"componentType":5126,
			"count":2143,
			"type":"VEC2"
		},
		{
			"bufferView":43,
			"componentType":5126,
			"count":2143,
			"max":[
				0.9999998807907104,
				1,
				0.9999997615814209
			],
			"min":[
				-0.9999997019767761,
				-1,
				-1
			],
			"type":"VEC3"
		},
		{
			"bufferView":44,
			"componentType":5126,
			"count":2143,
			"type":"VEC3"
		},
		{
			"bufferView":45,
			"componentType":5126,
			"count":2143,
			"type":"VEC2"
		},
		{
			"bufferView":46,
			"componentType":5126,
			"count":2143,
			"max":[
				0.9999998807907104,
				1,
				0.9999997615814209
			],
			"min":[
				-0.9999997019767761,
				-1,
				-1
			],
			"type":"VEC3"
		},
		{
			"bufferView":47,
			"componentType":5126,
			"count":2143,
			"type":"VEC3"
		},
		{
			"bufferView":48,
			"componentType":5126,
			"count":2143,
			"type":"VEC2"
		}
	],
	"bufferViews":[
		{
			"buffer":0,
			"byteLength":25716,
			"byteOffset":0,
			"target":34962
		},
		{
			"buffer":0,
			"byteLength":25716,
			"byteOffset":25716,
			"target":34962
		},
		{
			"buffer":0,
			"byteLength":17144,
			"byteOffset":51432,
			"target":34962
		},
		{
			"buffer":0,
			"byteLength":23808,
			"byteOffset":68576,
			"target":34963
		},
		{
			"buffer":0,
			"byteLength":25716,
			"byteOffset":92384,
			"target":34962
		},
		{
			"buffer":0,
			"byteLength":25716,
			"byteOffset":118100,
			"target":34962
		},
		{
			"buffer":0,
			"byteLength":17144,
			"byteOffset":143816,
			"target":34962
		},
		{
			"buffer":0,
			"byteLength":25716,
			"byteOffset":160960,
			"target":34962
		},
		{
			"buffer":0,
			"byteLength":25716,
			"byteOffset":186676,
			"target":34962
		},
		{
			"buffer":0,
			"byteLength":17144,
			"byteOffset":212392,
			"target":34962
		},
		{
			"buffer":0,
			"byteLength":25716,
			"byteOffset":229536,
			"target":34962
		},
		{
			"buffer":0,
			"byteLength":25716,
			"byteOffset":255252,
			"target":34962
		},
		{
			"buffer":0,
			"byteLength":17144,
			"byteOffset":280968,
			"target":34962
		},
		{
			"buffer":0,
			"byteLength":25716,
			"byteOffset":298112,
			"target":34962
		},
		{
			"buffer":0,
			"byteLength":25716,
			"byteOffset":323828,
			"target":34962
		},
		{
			"buffer":0,
			"byteLength":17144,
			"byteOffset":349544,
			"target":34962
		},
		{
			"buffer":0,
			"byteLength":25716,
			"byteOffset":366688,
			"target":34962
		},
		{
			"buffer":0,
			"byteLength":25716,
			"byteOffset":392404,
			"target":34962
		},
		{
			"buffer":0,
			"byteLength":17144,
			"byteOffset":418120,
			"target":34962
		},
		{
			"buffer":0,
			"byteLength":25716,
			"byteOffset":435264,
			"target":34962
		},
		{
			"buffer":0,
			"byteLength":25716,
			"byteOffset":460980,
			"target":34962
		},
		{
			"buffer":0,
			"byteLength":17144,
			"byteOffset":486696,
			"target":34962
		},
		{
			"buffer":0,
			"byteLength":25716,
			"byteOffset":503840,
			"target":34962
		},
		{
			"buffer":0,
			"byteLength":25716,
			"byteOffset":529556,
			"target":34962
		},
		{
			"buffer":0,
			"byteLength":17144,
			"byteOffset":555272,
			"target":34962
		},
		{
			"buffer":0,
			"byteLength":25716,
			"byteOffset":572416,
			"target":34962
		},
		{
			"buffer":0,
			"byteLength":25716,
			"byteOffset":598132,
			"target":34962
		},
		{
			"buffer":0,
			"byteLength":17144,
			"byteOffset":623848,
			"target":34962
		},
		{
			"buffer":0,
			"byteLength":25716,
			"byteOffset":640992,
			"target":34962
		},
		{
			"buffer":0,
			"byteLength":25716,
			"byteOffset":666708,
			"target":34962
		},
		{
			"buffer":0,
			"byteLength":17144,
			"byteOffset":692424,
			"target":34962
		},
		{
			"buffer":0,
			"byteLength":25716,
			"byteOffset":709568,
			"target":34962
		},
		{
			"buffer":0,
			"byteLength":25716,
			"byteOffset":735284,
			"target":34962
		},
		{
			"buffer":0,
			"byteLength":17144,
			"byteOffset":761000,
			"target":34962
		},
		{
			"buffer":0,
			"byteLength":25716,
			"byteOffset":778144,
			"target":34962
		},
		{
			"buffer":0,
			"byteLength":25716,
			"byteOffset":803860,
			"target":34962
		},
		{
			"buffer":0,
			"byteLength":17144,
			"byteOffset":829576,
			"target":34962
		},
		{
			"buffer":0,
			"byteLength":25716,
			"byteOffset":846720,
			"target":34962
		},
		{
			"buffer":0,
			"byteLength":25716,
			"byteOffset":872436,
			"target":34962
		},
		{
			"buffer":0,
			"byteLength":17144,
			"byteOffset":898152,
			"target":34962
		},
		{
			"buffer":0,
			"byteLength":25716,
			"byteOffset":915296,
			"target":34962
		},
		{
			"buffer":0,
			"byteLength":25716,
			"byteOffset":941012,
			"target":34962
		},
		{
			"buffer":0,
			"byteLength":17144,
			"byteOffset":966728,
			"target":34962
		},
		{
			"buffer":0,
			"byteLength":25716,
			"byteOffset":983872,
			"target":34962
		},
		{
			"buffer":0,
			"byteLength":25716,
			"byteOffset":1009588,
			"target":34962
		},
		{
			"buffer":0,
			"byteLength":17144,
			"byteOffset":1035304,
			"target":34962
		},
		{
			"buffer":0,
			"byteLength":25716,
			"byteOffset":1052448,
			"target":34962
		},
		{
			"buffer":0,
			"byteLength":25716,
			"byteOffset":1078164,
			"target":34962
		},
		{
			"buffer":0,
			"byteLength":17144,
			"byteOffset":1103880,
			"target":34962
		}
	],
	"buffers":[
		{
			"byteLength":1121024,
			"uri":"pbr_spheres.bin"
		}
	]
}
